<svg width="23" height="26" viewBox="0 0 23 26" fill="none" xmlns="http://www.w3.org/2000/svg">
<path d="M4.91953 5.58765L4.79796 6.07264L4.91953 5.58765ZM8.70414 3.4026L8.22333 3.26539L8.70414 3.4026ZM1.89873 10.8198L1.5395 11.1676L1.89873 10.8198ZM1.89873 15.1899L1.5395 14.8421L1.89873 15.1899ZM4.91953 20.4221L4.79796 19.9371L4.91953 20.4221ZM8.70414 22.6071L8.22333 22.7444L8.70414 22.6071ZM14.7457 22.6071L15.2265 22.7444L14.7457 22.6071ZM18.5303 20.4221L18.6519 19.9371L18.5303 20.4221ZM21.5511 15.1899L21.1919 15.5377L21.5511 15.1899ZM21.5511 10.8198L21.1919 10.472L21.5511 10.8198ZM18.5303 5.58765L18.6519 6.07264L18.5303 5.58765ZM14.7457 3.4026L15.2265 3.26539L14.7457 3.4026ZM4.79796 6.07264C6.70417 6.55046 8.64564 5.42955 9.18494 3.53982L8.22333 3.26539C7.83213 4.63616 6.42383 5.44925 5.0411 5.10265L4.79796 6.07264ZM2.25797 10.472C0.409584 8.5628 2.22031 5.42652 4.79796 6.07264L5.0411 5.10265C1.48759 4.21192 -1.00865 8.53554 1.5395 11.1676L2.25797 10.472ZM2.25796 15.5377C3.62487 14.1258 3.62487 11.884 2.25797 10.472L1.5395 11.1676C2.53102 12.1918 2.53102 13.818 1.5395 14.8421L2.25796 15.5377ZM4.79796 19.9371C2.22031 20.5832 0.409584 17.4469 2.25796 15.5377L1.5395 14.8421C-1.00865 17.4742 1.48759 21.7978 5.0411 20.9071L4.79796 19.9371ZM9.18494 22.4699C8.64564 20.5802 6.70417 19.4593 4.79796 19.9371L5.0411 20.9071C6.42383 20.5605 7.83213 21.3736 8.22333 22.7444L9.18494 22.4699ZM14.2649 22.4699C13.5357 25.0253 9.91421 25.0253 9.18494 22.4699L8.22333 22.7444C9.22869 26.2671 14.2212 26.2671 15.2265 22.7444L14.2649 22.4699ZM18.6519 19.9371C16.7457 19.4593 14.8042 20.5802 14.2649 22.4699L15.2265 22.7444C15.6177 21.3736 17.026 20.5605 18.4088 20.9071L18.6519 19.9371ZM21.1919 15.5377C23.0403 17.4469 21.2296 20.5832 18.6519 19.9371L18.4088 20.9071C21.9623 21.7978 24.4585 17.4742 21.9104 14.8421L21.1919 15.5377ZM21.1919 10.472C19.825 11.884 19.825 14.1258 21.1919 15.5377L21.9104 14.8421C20.9189 13.818 20.9189 12.1918 21.9104 11.1676L21.1919 10.472ZM18.6519 6.07264C21.2296 5.42652 23.0403 8.5628 21.1919 10.472L21.9104 11.1676C24.4585 8.53554 21.9623 4.21192 18.4088 5.10265L18.6519 6.07264ZM14.2649 3.53982C14.8042 5.42955 16.7457 6.55046 18.6519 6.07264L18.4088 5.10265C17.026 5.44925 15.6177 4.63616 15.2265 3.26539L14.2649 3.53982ZM15.2265 3.26539C14.2212 -0.257409 9.22869 -0.257408 8.22333 3.26539L9.18494 3.53982C9.91421 0.984449 13.5357 0.984448 14.2649 3.53982L15.2265 3.26539ZM7.8604 13.0049C7.8604 15.1392 9.59062 16.8694 11.7249 16.8694V15.8694C10.1429 15.8694 8.8604 14.5869 8.8604 13.0049H7.8604ZM11.7249 16.8694C13.8593 16.8694 15.5895 15.1392 15.5895 13.0049H14.5895C14.5895 14.5869 13.307 15.8694 11.7249 15.8694V16.8694ZM15.5895 13.0049C15.5895 10.8705 13.8593 9.14033 11.7249 9.14033V10.1403C13.307 10.1403 14.5895 11.4228 14.5895 13.0049H15.5895ZM11.7249 9.14033C9.59062 9.14033 7.8604 10.8705 7.8604 13.0049H8.8604C8.8604 11.4228 10.1429 10.1403 11.7249 10.1403V9.14033Z" fill="#707070"/>
</svg>
