<svg width="20" height="19" viewBox="0 0 20 19" fill="none" xmlns="http://www.w3.org/2000/svg">
<path d="M7.47417 6.74053L7.75918 5.8855C8.35723 4.09135 10.7242 3.70724 11.8589 5.2202C12.5236 6.10646 12.4772 7.33701 11.7477 8.17073L10.9664 9.06367C10.359 9.75788 10.0242 10.649 10.0242 11.5714V11.8405M18.5242 9.29053C18.5242 13.9849 14.7186 17.7905 10.0242 17.7905C5.32975 17.7905 1.52417 13.9849 1.52417 9.29053C1.52417 4.59611 5.32975 0.790527 10.0242 0.790527C14.7186 0.790527 18.5242 4.59611 18.5242 9.29053Z" stroke="#9E9E9E" stroke-width="1.5" stroke-linecap="round"/>
<path d="M10.8742 14.3905C10.8742 14.86 10.4936 15.2405 10.0242 15.2405C9.55475 15.2405 9.17419 14.86 9.17419 14.3905C9.17419 13.9211 9.55475 13.5405 10.0242 13.5405C10.4936 13.5405 10.8742 13.9211 10.8742 14.3905Z" fill="#9E9E9E"/>
</svg>
