<svg width="12" height="16" viewBox="0 0 12 16" fill="none" xmlns="http://www.w3.org/2000/svg">
<path d="M8.89181 4.2379C8.89181 5.86568 7.61262 7.18526 6.03467 7.18526C4.45671 7.18526 3.17753 5.86568 3.17753 4.2379C3.17753 2.61011 4.45671 1.29053 6.03467 1.29053C7.61262 1.29053 8.89181 2.61011 8.89181 4.2379Z" fill="#FED400"/>
<path d="M1.03467 12.3432C1.03467 10.7154 2.31385 9.39579 3.89181 9.39579H8.17753C9.75548 9.39579 11.0347 10.7154 11.0347 12.3432C11.0347 13.9709 9.75548 15.2905 8.17753 15.2905H3.89181C2.31385 15.2905 1.03467 13.9709 1.03467 12.3432Z" fill="#FED400"/>
<path d="M8.49707 4.2379C8.49707 5.65933 7.38314 6.79053 6.03467 6.79053V7.58C7.84211 7.58 9.28655 6.07203 9.28655 4.2379H8.49707ZM6.03467 6.79053C4.6862 6.79053 3.57226 5.65933 3.57226 4.2379H2.78279C2.78279 6.07203 4.22723 7.58 6.03467 7.58V6.79053ZM3.57226 4.2379C3.57226 2.81646 4.6862 1.68526 6.03467 1.68526V0.89579C4.22723 0.89579 2.78279 2.40376 2.78279 4.2379H3.57226ZM6.03467 1.68526C7.38314 1.68526 8.49707 2.81646 8.49707 4.2379H9.28655C9.28655 2.40376 7.84211 0.89579 6.03467 0.89579V1.68526ZM3.89181 9.79053H8.17753V9.00105H3.89181V9.79053ZM8.17753 14.8958H3.89181V15.6853H8.17753V14.8958ZM3.89181 14.8958C2.54334 14.8958 1.4294 13.7646 1.4294 12.3432H0.639931C0.639931 14.1773 2.08437 15.6853 3.89181 15.6853V14.8958ZM10.6399 12.3432C10.6399 13.7646 9.526 14.8958 8.17753 14.8958V15.6853C9.98497 15.6853 11.4294 14.1773 11.4294 12.3432H10.6399ZM8.17753 9.79053C9.526 9.79053 10.6399 10.9217 10.6399 12.3432H11.4294C11.4294 10.509 9.98497 9.00105 8.17753 9.00105V9.79053ZM3.89181 9.00105C2.08437 9.00105 0.639931 10.509 0.639931 12.3432H1.4294C1.4294 10.9217 2.54334 9.79053 3.89181 9.79053V9.00105Z" fill="#FED400"/>
</svg>
