<svg width="14" height="20" viewBox="0 0 14 20" fill="none" xmlns="http://www.w3.org/2000/svg">
<path d="M10.6824 4.78277C10.6824 6.89896 9.01942 8.61448 6.96801 8.61448C4.91659 8.61448 3.25359 6.89896 3.25359 4.78277C3.25359 2.66657 4.91659 0.95105 6.96801 0.95105C9.01942 0.95105 10.6824 2.66657 10.6824 4.78277Z" fill="#707070"/>
<path d="M0.467773 15.32C0.467773 13.2038 2.13078 11.4883 4.18219 11.4883H9.75382C11.8052 11.4883 13.4682 13.2038 13.4682 15.32C13.4682 17.4362 11.8052 19.1517 9.75382 19.1517H4.18219C2.13078 19.1517 0.467773 17.4362 0.467773 15.32Z" fill="#707070"/>
<path d="M10.2877 4.78277C10.2877 6.69262 8.78994 8.21975 6.96801 8.21975V9.00922C9.24891 9.00922 11.0772 7.10531 11.0772 4.78277H10.2877ZM6.96801 8.21975C5.14608 8.21975 3.64832 6.69262 3.64832 4.78277H2.85885C2.85885 7.10531 4.6871 9.00922 6.96801 9.00922V8.21975ZM3.64832 4.78277C3.64832 2.87292 5.14608 1.34579 6.96801 1.34579V0.556313C4.6871 0.556313 2.85885 2.46022 2.85885 4.78277H3.64832ZM6.96801 1.34579C8.78994 1.34579 10.2877 2.87292 10.2877 4.78277H11.0772C11.0772 2.46022 9.24891 0.556313 6.96801 0.556313V1.34579ZM4.18219 11.883H9.75382V11.0935H4.18219V11.883ZM9.75382 18.757H4.18219V19.5464H9.75382V18.757ZM4.18219 18.757C2.36026 18.757 0.86251 17.2298 0.86251 15.32H0.0730366C0.0730366 17.6425 1.90129 19.5464 4.18219 19.5464V18.757ZM13.0735 15.32C13.0735 17.2298 11.5758 18.757 9.75382 18.757V19.5464C12.0347 19.5464 13.863 17.6425 13.863 15.32H13.0735ZM9.75382 11.883C11.5758 11.883 13.0735 13.4101 13.0735 15.32H13.863C13.863 12.9974 12.0347 11.0935 9.75382 11.0935V11.883ZM4.18219 11.0935C1.90129 11.0935 0.0730366 12.9974 0.0730366 15.32H0.86251C0.86251 13.4101 2.36026 11.883 4.18219 11.883V11.0935Z" fill="#707070"/>
</svg>
