<?xml version="1.0" encoding="UTF-8"?>
<svg id="_Слой_1" data-name="Слой 1" xmlns="http://www.w3.org/2000/svg" viewBox="0 0 1080 1080">
  <defs>
    <style>
      .cls-1 {
        fill: #fed400;
      }
    </style>
  </defs>
  <g>
    <path class="cls-1" d="m972.23,593.73c-23.67,197.83-180.45,354.7-378.26,378.48-115.74,13.91-223.87-17.63-308.89-79.14-.23-.17-.26-.51-.06-.71h0c37.89-37.89,94.11-51.32,144.74-33.8,32.77,11.34,67.83,17.77,104.3,18.4,190.34,3.29,346.18-152.55,342.89-342.89-1.14-65.76-21.11-126.93-54.77-178.35-.12-.18-.1-.42.06-.58h0c38.15-38.15,103.18-25.05,122.98,25.14,25.63,64.97,36.09,137.58,27.01,213.46Z"/>
    <path class="cls-1" d="m316.36,714.57c-80.23-102.03-80.27-246.51-.1-348.58,46.91-59.72,111.24-95,178.74-105.84.18-.03.35.11.35.3h0c0,34.9-19.71,66.99-51.1,82.24-20.32,9.87-39.43,23.06-56.52,39.57-89.19,86.16-89.19,229.74,0,315.9,30.82,29.77,68.19,48.75,107.38,56.93.14.03.24.15.24.29h0c0,35.14-35.99,59.07-68.23,45.07-41.73-18.12-80-46.75-110.77-85.89Z"/>
    <path class="cls-1" d="m794.98,187.64h0c-37.89,37.89-94.11,51.32-144.74,33.8-32.77-11.34-67.83-17.76-104.3-18.4-190.08-3.29-346.18,152.81-342.89,342.89,1.14,65.76,21.11,126.93,54.77,178.35.12.18.1.42-.06.58h0c-38.15,38.15-103.18,25.05-122.98-25.14-25.63-64.97-36.09-137.58-27.01-213.46,23.67-197.83,180.45-354.7,378.26-378.48,115.74-13.91,223.87,17.63,308.9,79.14.23.17.26.51.06.71Z"/>
    <path class="cls-1" d="m584.64,819.55h0c0-34.9,19.71-66.99,51.1-82.24,20.32-9.87,39.43-23.06,56.52-39.57,89.07-86.04,89.07-229.86,0-315.9-30.82-29.77-68.19-48.75-107.38-56.93-.14-.03-.24-.15-.24-.29h0c0-35.14,35.99-59.07,68.23-45.07,41.73,18.12,80,46.75,110.77,85.89,80.23,102.03,80.27,246.51.1,348.58-46.91,59.72-111.24,95-178.74,105.84-.18.03-.35-.11-.35-.3Z"/>
  </g>
  <path class="cls-1" d="m438.58,455.98v168.05c0,22.11,23.29,36.48,43.06,26.56l167.33-84.02c21.84-10.97,21.84-42.15,0-53.12l-167.33-84.02c-19.76-9.92-43.06,4.44-43.06,26.56Z"/>
</svg>