<svg width="112" height="28" viewBox="0 0 112 28" fill="none" xmlns="http://www.w3.org/2000/svg">
<path d="M14.5788 11.7586L11.5222 18.5651H17.6803L14.5788 11.7586ZM19.9503 24.2148H9.29726L7.72403 27.4624H0.981628V26.4836L13.118 1.21533H16.0846L28.2659 26.4836V27.4624H21.5235L19.9503 24.2148Z" fill="#37AC38"/>
<path d="M41.1317 0.893379C46.5706 0.937866 52.2342 3.60706 53.5377 10.0576H46.7504C45.6266 7.83327 43.8511 6.94354 41.1317 6.94354C36.7716 6.94354 34.4342 10.191 34.4342 14.1503C34.4342 18.421 37.0638 21.2682 41.1317 21.2682C43.9185 21.2682 45.6716 20.5564 46.9077 18.1097H41.1766V12.3709H53.9423C54.0996 14.9511 54.0996 17.4423 53.1781 19.9336C51.2453 25.3165 46.1211 27.4073 41.1542 27.4073C34.2994 27.4073 27.3547 23.0032 27.3098 14.1503C27.3322 5.34202 34.2769 0.937866 41.1317 0.893379Z" fill="#37AC38"/>
<path d="M69.369 0.982246C74.8079 1.02673 80.4715 3.69591 81.775 10.1465H74.9877C73.8639 7.92213 72.0884 7.0324 69.369 7.0324C65.0089 7.0324 62.6715 10.2799 62.6715 14.2392C62.6715 18.5099 65.3011 21.3571 69.369 21.3571C72.1559 21.3571 73.9089 20.6453 75.145 18.1985H69.3915V12.4598H82.1571C82.3144 15.04 82.3144 17.5312 81.393 20.0225C79.4601 25.4053 74.3359 27.4962 69.369 27.4962C62.5142 27.4962 55.5695 23.092 55.5246 14.2392C55.5695 5.3864 62.5142 0.982246 69.369 0.982246Z" fill="#37AC38"/>
<path d="M104.374 14.1446C104.374 4.84693 90.8444 4.84693 90.8444 14.1446C90.8444 23.5313 104.374 23.5313 104.374 14.1446ZM83.7648 14.1446C83.7648 -3.73896 111.431 -3.73896 111.431 14.1446C111.431 32.0727 83.7648 32.0727 83.7648 14.1446Z" fill="#37AC38"/>
</svg>
