<svg width="25" height="25" viewBox="0 0 25 25" fill="none" xmlns="http://www.w3.org/2000/svg">
<path d="M13.9123 19.4953C14.3029 19.1048 14.3029 18.4716 13.9123 18.0811C13.5218 17.6906 12.8887 17.6906 12.4981 18.0811L13.9123 19.4953ZM18.155 12.4243C17.7645 12.8148 17.7645 13.4479 18.155 13.8385C18.5455 14.229 19.1787 14.229 19.5692 13.8385L18.155 12.4243ZM11.0839 5.35319C10.6934 5.74371 10.6934 6.37688 11.0839 6.7674C11.4744 7.15793 12.1076 7.15793 12.4981 6.7674L11.0839 5.35319ZM6.84127 12.4243C7.2318 12.0337 7.2318 11.4006 6.84127 11.01C6.45075 10.6195 5.81758 10.6195 5.42706 11.01L6.84127 12.4243ZM8.96259 14.5456C8.57207 14.9361 8.57207 15.5693 8.96259 15.9598C9.35312 16.3503 9.98628 16.3503 10.3768 15.9598L8.96259 14.5456ZM16.0337 10.3029C16.4242 9.91241 16.4242 9.27925 16.0337 8.88872C15.6431 8.4982 15.01 8.4982 14.6194 8.88872L16.0337 10.3029ZM12.4981 18.0811C10.936 19.6432 8.40337 19.6432 6.84127 18.0811L5.42706 19.4953C7.77021 21.8385 11.5692 21.8385 13.9123 19.4953L12.4981 18.0811ZM18.155 6.7674C19.7171 8.3295 19.7171 10.8622 18.155 12.4243L19.5692 13.8385C21.9123 11.4953 21.9123 7.69634 19.5692 5.35319L18.155 6.7674ZM12.4981 6.7674C14.0602 5.20531 16.5929 5.20531 18.155 6.7674L19.5692 5.35319C17.226 3.01004 13.4271 3.01004 11.0839 5.35319L12.4981 6.7674ZM5.42706 11.01C3.08391 13.3532 3.08391 17.1522 5.42706 19.4953L6.84127 18.0811C5.27918 16.519 5.27918 13.9864 6.84127 12.4243L5.42706 11.01ZM10.3768 15.9598L16.0337 10.3029L14.6194 8.88872L8.96259 14.5456L10.3768 15.9598Z" fill="#1E1E1E"/>
</svg>
