<svg width="31" height="32" viewBox="0 0 31 32" fill="none" xmlns="http://www.w3.org/2000/svg">
<path d="M8.09158 19.3178C8.26224 19.8431 8.82639 20.1305 9.35165 19.9599C9.8769 19.7892 10.1644 19.225 9.99369 18.6998L8.09158 19.3178ZM21.9575 19.0088L21.0065 18.6998L21.9575 19.0088ZM19.2846 21.6818L18.9755 20.7307L19.2846 21.6818ZM22.9086 12.7961C22.7379 12.2709 22.1738 11.9834 21.6485 12.1541C21.1233 12.3248 20.8358 12.8889 21.0065 13.4142L22.9086 12.7961ZM11.7156 10.4322L11.4066 9.48112V9.48112L11.7156 10.4322ZM9.04263 13.1052L8.09158 12.7961L9.04263 13.1052ZM18.9133 7.856C18.5228 7.46548 17.8896 7.46548 17.4991 7.856C17.1086 8.24653 17.1086 8.87969 17.4991 9.27022L18.9133 7.856ZM19.2268 9.58369L19.9339 8.87658V8.87658L19.2268 9.58369ZM19.1711 10.8121L18.5309 10.0439V10.0439L19.1711 10.8121ZM17.3579 11.0214C16.9336 11.375 16.8763 12.0055 17.2298 12.4298C17.5834 12.8541 18.214 12.9114 18.6382 12.5579L17.3579 11.0214ZM13.7092 20.9274C14.0998 20.5368 14.0998 19.9037 13.7092 19.5131C13.3187 19.1226 12.6855 19.1226 12.295 19.5131L13.7092 20.9274ZM11.9816 21.2408L12.6887 21.9479L11.9816 21.2408ZM12.0373 22.4693L11.3971 23.2375L12.0373 22.4693ZM12.5701 24.215C12.9944 24.5686 13.6249 24.5112 13.9785 24.087C14.3321 23.6627 14.2748 23.0321 13.8505 22.6786L12.5701 24.215ZM11.7489 21.6924L10.7624 21.5288L11.7489 21.6924ZM16.3327 20.8855H14.6674V22.8855H16.3327V20.8855ZM7.83887 16.057C7.83887 17.5289 7.82653 18.5021 8.09158 19.3178L9.99369 18.6998C9.8512 18.2613 9.83887 17.6846 9.83887 16.057H7.83887ZM21.1613 16.057C21.1613 17.6846 21.149 18.2613 21.0065 18.6998L22.9086 19.3178C23.1736 18.5021 23.1613 17.5289 23.1613 16.057H21.1613ZM16.3327 22.8855C17.8047 22.8855 18.7779 22.8979 19.5936 22.6328L18.9755 20.7307C18.537 20.8732 17.9604 20.8855 16.3327 20.8855V22.8855ZM21.0065 18.6998C20.6936 19.6628 19.9386 20.4178 18.9755 20.7307L19.5936 22.6328C21.1655 22.1221 22.3979 20.8897 22.9086 19.3178L21.0065 18.6998ZM23.1613 16.057C23.1613 14.585 23.1736 13.6119 22.9086 12.7961L21.0065 13.4142C21.149 13.8527 21.1613 14.4293 21.1613 16.057H23.1613ZM14.6674 9.22842C13.1955 9.22842 12.2223 9.21608 11.4066 9.48112L12.0246 11.3832C12.4631 11.2408 13.0398 11.2284 14.6674 11.2284V9.22842ZM9.83887 16.057C9.83887 14.4293 9.8512 13.8527 9.99369 13.4142L8.09158 12.7961C7.82653 13.6119 7.83887 14.585 7.83887 16.057H9.83887ZM11.4066 9.48112C9.8347 9.99186 8.60231 11.2242 8.09158 12.7961L9.99369 13.4142C10.3066 12.4512 11.0616 11.6961 12.0246 11.3832L11.4066 9.48112ZM17.4991 9.27022L18.5197 10.2908L19.9339 8.87658L18.9133 7.856L17.4991 9.27022ZM18.5309 10.0439L17.3579 11.0214L18.6382 12.5579L19.8112 11.5803L18.5309 10.0439ZM12.295 19.5131L11.2744 20.5337L12.6887 21.9479L13.7092 20.9274L12.295 19.5131ZM11.3971 23.2375L12.5701 24.215L13.8505 22.6786L12.6775 21.701L11.3971 23.2375ZM14.6674 11.2284H19.247V9.22842H14.6674V11.2284ZM18.5197 10.2908C18.4841 10.2552 18.4681 10.2053 18.471 10.1614L20.4665 10.2954C20.5004 9.79059 20.3251 9.26777 19.9339 8.87658L18.5197 10.2908ZM18.471 10.1614C18.4739 10.1192 18.4945 10.0742 18.5309 10.0439L19.8112 11.5803C20.2136 11.2451 20.4344 10.7742 20.4665 10.2954L18.471 10.1614ZM19.247 11.2284H19.4688V9.22842H19.247V11.2284ZM11.2744 20.5337C10.9938 20.8144 10.8227 21.1651 10.7624 21.5288L12.7355 21.8559C12.7298 21.89 12.7131 21.9235 12.6887 21.9479L11.2744 20.5337ZM10.7624 21.5288C10.6607 22.1425 10.8746 22.802 11.3971 23.2375L12.6775 21.701C12.7261 21.7416 12.7441 21.8036 12.7355 21.8559L10.7624 21.5288ZM14.6674 20.8855C13.0701 20.8855 12.4855 20.8742 12.0458 20.7375L11.4521 22.6473C12.2551 22.8969 13.2199 22.8855 14.6674 22.8855V20.8855Z" fill="#707070"/>
<rect x="0.5" y="1.00488" width="30" height="30" rx="15" stroke="#707070"/>
</svg>
