<svg width="65" height="64" viewBox="0 0 65 64" fill="none" xmlns="http://www.w3.org/2000/svg">
<path d="M62.1732 32.1604C62.1732 48.4547 48.9641 61.6638 32.6698 61.6638V63.9778C50.2421 63.9778 64.4872 49.7327 64.4872 32.1604H62.1732ZM32.6698 61.6638C16.3755 61.6638 3.16637 48.4547 3.16637 32.1604H0.852372C0.852372 49.7327 15.0975 63.9778 32.6698 63.9778V61.6638ZM3.16637 32.1604C3.16637 15.8661 16.3755 2.657 32.6698 2.657V0.343003C15.0975 0.343003 0.852372 14.5881 0.852372 32.1604H3.16637ZM32.6698 2.657C48.9641 2.657 62.1732 15.8661 62.1732 32.1604H64.4872C64.4872 14.5881 50.2421 0.343003 32.6698 0.343003V2.657Z" fill="#FFD500"/>
<path d="M37.0268 23.8182C41.4751 26.5559 43.6992 27.9247 44.4456 29.7117C45.0967 31.2705 45.0967 33.0505 44.4456 34.6092C43.6992 36.3963 41.4751 37.7651 37.0268 40.5027C32.5785 43.2403 30.3543 44.6091 28.5292 44.4046C26.9373 44.2263 25.4912 43.3363 24.5503 41.9559C23.4716 40.3733 23.4716 37.6357 23.4716 32.1605C23.4716 26.6852 23.4716 23.9476 24.5503 22.365C25.4912 20.9846 26.9373 20.0946 28.5292 19.9163C30.3543 19.7118 32.5785 21.0806 37.0268 23.8182Z" fill="#FFD500" stroke="#FFD500" stroke-width="2.31399"/>
</svg>
