<svg width="188" height="41" viewBox="0 0 188 41" fill="none" xmlns="http://www.w3.org/2000/svg">
<path d="M1.70605 14.5832L1.70605 23.9721" stroke="#1E1E1E" stroke-width="2.31399" stroke-linecap="round"/>
<path d="M8.27832 8.01099L8.27832 30.5444" stroke="#1E1E1E" stroke-width="2.31399" stroke-linecap="round"/>
<path d="M14.8506 4.25537L14.8506 36.1777" stroke="#1E1E1E" stroke-width="2.31399" stroke-linecap="round"/>
<path d="M21.4228 13.6443L21.4228 26.7888" stroke="#1E1E1E" stroke-width="2.31399" stroke-linecap="round"/>
<path d="M27.9951 4.25537L27.9951 36.1777" stroke="#1E1E1E" stroke-width="2.31399" stroke-linecap="round"/>
<path d="M34.5673 6.13319L34.5673 34.3" stroke="#1E1E1E" stroke-width="2.31399" stroke-linecap="round"/>
<path d="M41.1395 8.01099L41.1395 32.4222" stroke="#1E1E1E" stroke-width="2.31399" stroke-linecap="round"/>
<path d="M47.7118 6.13319L47.7118 34.3" stroke="#1E1E1E" stroke-width="2.31399" stroke-linecap="round"/>
<path d="M54.2841 10.8277L54.2841 29.6055" stroke="#1E1E1E" stroke-width="2.31399" stroke-linecap="round"/>
<path d="M60.8563 6.13319L60.8563 34.3" stroke="#1E1E1E" stroke-width="2.31399" stroke-linecap="round"/>
<path d="M67.4285 10.8277L67.4285 29.6055" stroke="#1E1E1E" stroke-width="2.31399" stroke-linecap="round"/>
<path d="M74.0007 13.6443L74.0007 26.7888" stroke="#1E1E1E" stroke-width="2.31399" stroke-linecap="round"/>
<path d="M80.573 7.07205L80.573 33.361" stroke="#1E1E1E" stroke-width="2.31399" stroke-linecap="round"/>
<path d="M87.1453 3.31651L87.1453 37.1166" stroke="#1E1E1E" stroke-width="2.31399" stroke-linecap="round"/>
<path d="M94.6564 7.07205L94.6564 33.361" stroke="#1E1E1E" stroke-width="2.31399" stroke-linecap="round"/>
<path d="M101.229 9.88873L101.229 30.5444" stroke="#1E1E1E" stroke-width="2.31399" stroke-linecap="round"/>
<path d="M107.801 16.461L107.801 23.9721" stroke="#1E1E1E" stroke-width="2.31399" stroke-linecap="round"/>
<path d="M114.373 7.07205L114.373 33.361" stroke="#1E1E1E" stroke-width="2.31399" stroke-linecap="round"/>
<path d="M120.945 3.31651L120.945 37.1166" stroke="#1E1E1E" stroke-width="2.31399" stroke-linecap="round"/>
<path d="M127.518 13.6443L127.518 26.7888" stroke="#1E1E1E" stroke-width="2.31399" stroke-linecap="round"/>
<path d="M134.09 16.461L134.09 23.9721" stroke="#1E1E1E" stroke-width="2.31399" stroke-linecap="round"/>
<path d="M140.662 8.01099L140.662 32.4222" stroke="#1E1E1E" stroke-width="2.31399" stroke-linecap="round"/>
<path d="M147.234 3.31651L147.234 37.1166" stroke="#1E1E1E" stroke-width="2.31399" stroke-linecap="round"/>
<path d="M153.807 8.01099L153.807 32.4222" stroke="#1E1E1E" stroke-width="2.31399" stroke-linecap="round"/>
<path d="M160.379 1.43872L160.379 38.9944" stroke="#1E1E1E" stroke-width="2.31399" stroke-linecap="round"/>
<path d="M166.951 9.88873L166.951 30.5444" stroke="#1E1E1E" stroke-width="2.31399" stroke-linecap="round"/>
<path d="M173.523 3.31651L173.523 37.1166" stroke="#1E1E1E" stroke-width="2.31399" stroke-linecap="round"/>
<path d="M180.096 3.31651L180.096 37.1166" stroke="#1E1E1E" stroke-width="2.31399" stroke-linecap="round"/>
<path d="M186.668 7.07205L186.668 33.361" stroke="#1E1E1E" stroke-width="2.31399" stroke-linecap="round"/>
</svg>
