<svg width="19" height="18" viewBox="0 0 19 18" fill="none" xmlns="http://www.w3.org/2000/svg">
<path d="M8.63799 0.783984C8.93735 -0.137327 10.2408 -0.137326 10.5401 0.783985L11.9664 5.17379C12.1003 5.58581 12.4843 5.86477 12.9175 5.86477L17.5332 5.86477C18.5019 5.86477 18.9047 7.10439 18.121 7.67379L14.3868 10.3868C14.0363 10.6415 13.8897 11.0928 14.0235 11.5049L15.4499 15.8947C15.7492 16.816 14.6947 17.5821 13.911 17.0127L10.1768 14.2997C9.82635 14.045 9.35175 14.045 9.00126 14.2997L5.26708 17.0127C4.48336 17.5821 3.42888 16.816 3.72823 15.8947L5.15457 11.5049C5.28844 11.0928 5.14178 10.6415 4.7913 10.3868L1.05711 7.67379C0.273393 7.10439 0.676168 5.86477 1.64489 5.86477L6.2606 5.86477C6.69383 5.86477 7.07779 5.58581 7.21166 5.17379L8.63799 0.783984Z" fill="#FED400"/>
</svg>
