<svg width="22" height="21" viewBox="0 0 22 21" fill="none" xmlns="http://www.w3.org/2000/svg">
<path d="M9.55466 1.37768C9.90155 0.310062 11.4119 0.310062 11.7588 1.37768L13.4117 6.46458C13.5668 6.94203 14.0117 7.26529 14.5137 7.26529H19.8624C20.985 7.26529 21.4517 8.70175 20.5436 9.36157L16.2164 12.5055C15.8102 12.8005 15.6403 13.3236 15.7954 13.801L17.4483 18.8879C17.7951 19.9555 16.5732 20.8433 15.665 20.1835L11.3379 17.0396C10.9317 16.7445 10.3818 16.7445 9.97562 17.0396L5.64844 20.1835C4.74028 20.8433 3.51835 19.9555 3.86523 18.8879L5.51807 13.801C5.6732 13.3236 5.50325 12.8005 5.09711 12.5055L0.769934 9.36157C-0.138232 8.70175 0.328503 7.26529 1.45106 7.26529H6.79974C7.30177 7.26529 7.74669 6.94203 7.90183 6.46458L9.55466 1.37768Z" fill="#707070"/>
</svg>
