<svg width="16" height="16" viewBox="0 0 16 16" fill="none" xmlns="http://www.w3.org/2000/svg">
<path fill-rule="evenodd" clip-rule="evenodd" d="M8 15.5C12.1421 15.5 15.5 12.1421 15.5 8C15.5 3.85786 12.1421 0.5 8 0.5C3.85786 0.5 0.5 3.85786 0.5 8C0.5 12.1421 3.85786 15.5 8 15.5ZM9.98872 6.98874C10.2084 6.76907 10.2084 6.41291 9.98872 6.19324C9.76905 5.97357 9.4129 5.97357 9.19323 6.19324L7.99999 7.38649L6.80674 6.19324C6.58707 5.97357 6.23092 5.97357 6.01125 6.19324C5.79158 6.41291 5.79158 6.76907 6.01125 6.98874L7.20449 8.18198L6.01125 9.37522C5.79158 9.59489 5.79158 9.95105 6.01125 10.1707C6.23092 10.3904 6.58707 10.3904 6.80674 10.1707L7.99999 8.97748L9.19323 10.1707C9.4129 10.3904 9.76905 10.3904 9.98872 10.1707C10.2084 9.95105 10.2084 9.59489 9.98872 9.37522L8.79548 8.18198L9.98872 6.98874Z" fill="#707070"/>
</svg>
