<svg width="36" height="37" viewBox="0 0 36 37" fill="none" xmlns="http://www.w3.org/2000/svg">
<path d="M18 36.5C27.9411 36.5 36 28.4411 36 18.5C36 8.55887 27.9411 0.5 18 0.5C8.05887 0.5 0 8.55887 0 18.5C0 28.4411 8.05887 36.5 18 36.5Z" fill="#00A1DF"/>
<path d="M19.8206 16.2058C19.4087 16.4794 18.9988 16.7571 18.5915 17.0389C17.8293 17.5661 17.061 18.1184 16.2777 18.6271C15.5618 19.092 14.8886 19.6196 14.1738 20.0866C13.4034 20.5901 12.454 21.1218 11.5051 20.841C10.1608 20.444 9.11112 20.2779 8.12575 19.8906C7.13987 19.5034 7.49217 18.8343 8.2312 18.4825C8.97023 18.1302 17.1376 14.6099 17.1376 14.6099L22.2419 12.4978C22.6847 12.325 23.1275 12.1511 23.5692 11.9763C23.8675 11.858 24.1601 11.7258 24.4739 11.6544C24.8287 11.5736 25.252 11.5361 25.5734 11.7433C26.0327 12.0401 26.0316 12.6865 25.9735 13.1669C25.8599 14.1029 25.7195 15.0363 25.5806 15.9687C25.397 17.202 25.2072 18.4342 25.0149 19.6664C24.8441 20.7598 24.6719 21.8526 24.4975 22.9455C24.372 23.7339 24.3124 24.5475 24.1453 25.3272C24.0697 25.68 23.9539 26.0348 23.7528 26.3377C22.9109 27.6059 21.3326 26.474 20.4691 25.8399C19.7574 25.3169 16.7431 23.3672 15.9964 22.8447C15.73 22.6575 15.5212 22.3314 15.5243 22.0013C15.5284 21.5461 15.8519 21.2021 16.1656 20.911C16.5513 20.5535 16.9494 20.2095 17.3325 19.8485C17.907 19.3064 18.4819 18.7649 19.0564 18.2228C19.5496 17.7574 20.0428 17.2925 20.536 16.827C20.8086 16.5699 21.0672 16.3035 21.3084 16.016C21.381 15.9296 21.4319 15.8607 21.4396 15.7476C21.4452 15.6668 21.4293 15.5866 21.3681 15.529C21.1418 15.3161 20.86 15.5275 20.6568 15.6581C20.3766 15.8386 20.0978 16.0211 19.8201 16.2053L19.8206 16.2058Z" fill="white"/>
</svg>
