<svg width="33" height="34" viewBox="0 0 33 34" fill="none" xmlns="http://www.w3.org/2000/svg">
<path d="M21.8667 12.6009C21.8667 15.3948 19.6018 17.6597 16.8079 17.6597V19.6597C20.7064 19.6597 23.8667 16.4994 23.8667 12.6009H21.8667ZM16.8079 17.6597C14.0139 17.6597 11.749 15.3948 11.749 12.6009H9.74897C9.74897 16.4994 12.9093 19.6597 16.8079 19.6597V17.6597ZM11.749 12.6009C11.749 9.80691 14.0139 7.54197 16.8079 7.54197V5.54197C12.9093 5.54197 9.74897 8.70234 9.74897 12.6009H11.749ZM16.8079 7.54197C19.6018 7.54197 21.8667 9.80691 21.8667 12.6009H23.8667C23.8667 8.70234 20.7064 5.54197 16.8079 5.54197V7.54197ZM12.2637 24.2039H21.352V22.2039H12.2637V24.2039ZM2.66064 17.145C2.66064 9.33173 8.99457 2.9978 16.8079 2.9978V0.997803C7.89 0.997803 0.660645 8.22716 0.660645 17.145H2.66064ZM16.8079 2.9978C24.6212 2.9978 30.9551 9.33173 30.9551 17.145H32.9551C32.9551 8.22716 25.7257 0.997803 16.8079 0.997803V2.9978ZM30.9551 17.145C30.9551 21.1571 29.2862 24.7778 26.6022 27.3537L27.987 28.7967C31.0478 25.8593 32.9551 21.724 32.9551 17.145H30.9551ZM26.6022 27.3537C24.0593 29.794 20.6096 31.2922 16.8079 31.2922V33.2922C21.1461 33.2922 25.0866 31.58 27.987 28.7967L26.6022 27.3537ZM21.352 24.2039C23.8054 24.2039 25.8529 25.9514 26.3137 28.2701L28.2754 27.8802C27.6322 24.6437 24.7781 22.2039 21.352 22.2039V24.2039ZM16.8079 31.2922C13.0061 31.2922 9.55645 29.794 7.01357 27.3537L5.62875 28.7967C8.52909 31.58 12.4696 33.2922 16.8079 33.2922V31.2922ZM7.01357 27.3537C4.32948 24.7778 2.66064 21.1571 2.66064 17.145H0.660645C0.660645 21.724 2.56795 25.8593 5.62875 28.7967L7.01357 27.3537ZM12.2637 22.2039C8.83759 22.2039 5.98356 24.6437 5.34034 27.8802L7.30198 28.2701C7.76279 25.9514 9.81028 24.2039 12.2637 24.2039V22.2039Z" fill="#1E1E1E"/>
</svg>
