<svg width="21" height="21" viewBox="0 0 21 21" fill="none" xmlns="http://www.w3.org/2000/svg">
<path d="M0.0400391 10.5049C0.0400391 4.98188 4.51604 0.504883 10.04 0.504883C15.562 0.504883 20.04 4.98188 20.04 10.5049C20.04 16.0279 15.562 20.5049 10.04 20.5049C4.51604 20.5049 0.0400391 16.0279 0.0400391 10.5049Z" fill="#FC3F1D"/>
<path d="M11.3202 6.17088H10.3962C8.70223 6.17088 7.81123 7.02888 7.81123 8.29388C7.81123 9.72388 8.42724 10.3939 9.69223 11.2529L10.7372 11.9569L7.73423 16.4439H5.49023L8.18524 12.4299C6.63524 11.3189 5.76523 10.2399 5.76523 8.41488C5.76523 6.12688 7.36023 4.56488 10.3852 4.56488H13.3882V16.4329H11.3202V6.17088Z" fill="white"/>
</svg>
